<svg width="78" height="74" viewBox="0 0 78 74" fill="none" xmlns="http://www.w3.org/2000/svg">
<path d="M70.1096 34C70.1096 52.6316 54.4791 67.75 35.1798 67.75C15.8805 67.75 0.25 52.6316 0.25 34C0.25 15.3684 15.8805 0.25 35.1798 0.25C54.4791 0.25 70.1096 15.3684 70.1096 34Z" fill="white" stroke="black" stroke-width="0.5"/>
<path d="M23.6041 48.1667V46.3958C23.6041 44.768 23.9248 43.1561 24.5477 41.6522C25.1707 40.1482 26.0837 38.7817 27.2348 37.6307C28.3858 36.4796 29.7523 35.5665 31.2563 34.9436C32.7602 34.3206 34.3721 34 36 34C37.6278 34 39.2397 34.3206 40.7436 34.9436C42.2476 35.5665 43.6141 36.4796 44.7651 37.6307C45.9162 38.7817 46.8293 40.1482 47.4522 41.6522C48.0752 43.1561 48.3958 44.768 48.3958 46.3958V48.1667" stroke="#414140" stroke-width="2" stroke-linecap="round" stroke-linejoin="round"/>
<path d="M35.9998 34C37.8784 34 39.6801 33.2538 41.0084 31.9254C42.3368 30.597 43.0831 28.7953 43.0831 26.9167C43.0831 25.0381 42.3368 23.2364 41.0084 21.908C39.6801 20.5797 37.8784 19.8334 35.9998 19.8334C34.1212 19.8334 32.3195 20.5797 30.9911 21.908C29.6627 23.2364 28.9164 25.0381 28.9164 26.9167C28.9164 28.7953 29.6627 30.597 30.9911 31.9254C32.3195 33.2538 34.1212 34 35.9998 34V34Z" stroke="#414140" stroke-width="2" stroke-linecap="round" stroke-linejoin="round"/>
<path d="M72.1875 50.0234H68.7012L66.9805 47.4405C66.914 47.3409 66.824 47.2593 66.7183 47.2028C66.6127 47.1464 66.4948 47.117 66.375 47.1172H58.625C58.5052 47.117 58.3873 47.1464 58.2817 47.2028C58.176 47.2593 58.086 47.3409 58.0195 47.4405L56.2976 50.0234H52.8125C52.1059 50.0234 51.4283 50.3041 50.9287 50.8037C50.4291 51.3033 50.1484 51.9809 50.1484 52.6875V66.25C50.1484 66.9566 50.4291 67.6342 50.9287 68.1338C51.4283 68.6334 52.1059 68.9141 52.8125 68.9141H72.1875C72.8941 68.9141 73.5717 68.6334 74.0713 68.1338C74.5709 67.6342 74.8516 66.9566 74.8516 66.25V52.6875C74.8516 51.9809 74.5709 51.3033 74.0713 50.8037C73.5717 50.3041 72.8941 50.0234 72.1875 50.0234ZM73.3984 66.25C73.3984 66.5712 73.2709 66.8792 73.0438 67.1063C72.8167 67.3334 72.5087 67.4609 72.1875 67.4609H52.8125C52.4913 67.4609 52.1833 67.3334 51.9562 67.1063C51.7291 66.8792 51.6016 66.5712 51.6016 66.25V52.6875C51.6016 52.3663 51.7291 52.0583 51.9562 51.8312C52.1833 51.6041 52.4913 51.4766 52.8125 51.4766H56.6875C56.8073 51.4767 56.9252 51.4473 57.0308 51.3909C57.1365 51.3345 57.2265 51.2529 57.293 51.1532L59.0137 48.5703H65.9851L67.707 51.1532C67.7735 51.2529 67.8635 51.3345 67.9692 51.3909C68.0748 51.4473 68.1927 51.4767 68.3125 51.4766H72.1875C72.5087 51.4766 72.8167 51.6041 73.0438 51.8312C73.2709 52.0583 73.3984 52.3663 73.3984 52.6875V66.25ZM62.5 53.8984C61.4941 53.8984 60.5108 54.1967 59.6744 54.7556C58.838 55.3144 58.1861 56.1087 57.8012 57.0381C57.4163 57.9674 57.3155 58.99 57.5118 59.9766C57.708 60.9632 58.1924 61.8694 58.9037 62.5807C59.615 63.292 60.5212 63.7763 61.5078 63.9726C62.4944 64.1688 63.517 64.0681 64.4463 63.6832C65.3756 63.2982 66.17 62.6463 66.7288 61.81C67.2877 60.9736 67.5859 59.9903 67.5859 58.9844C67.5859 57.6355 67.0501 56.3419 66.0963 55.3881C65.1425 54.4343 63.8489 53.8984 62.5 53.8984ZM62.5 62.6172C61.7815 62.6172 61.0791 62.4041 60.4817 62.0049C59.8843 61.6058 59.4187 61.0384 59.1437 60.3746C58.8688 59.7108 58.7968 58.9803 58.937 58.2757C59.0772 57.571 59.4232 56.9236 59.9312 56.4156C60.4393 55.9075 61.0866 55.5615 61.7913 55.4214C62.496 55.2812 63.2264 55.3531 63.8902 55.6281C64.554 55.9031 65.1214 56.3687 65.5206 56.9661C65.9198 57.5635 66.1328 58.2659 66.1328 58.9844C66.1328 59.9479 65.7501 60.8719 65.0688 61.5532C64.3875 62.2344 63.4635 62.6172 62.5 62.6172Z" fill="black"/>
</svg>
