<svg width="30" height="30" viewBox="0 0 30 30" fill="none" xmlns="http://www.w3.org/2000/svg">
<path d="M5.90268 24.1304C5.15601 24.1309 4.4191 23.9829 3.74825 23.6978C3.0774 23.4126 2.49035 22.998 2.03196 22.4854C1.57357 21.9728 1.25595 21.3759 1.10338 20.7402C0.950803 20.1046 0.967307 19.447 1.15163 18.8177L2.40308 14.3913H9.40227L10.6537 18.8177C10.838 19.447 10.8546 20.1046 10.702 20.7402C10.5494 21.3759 10.2318 21.9728 9.7734 22.4854C9.315 22.998 8.72796 23.4126 8.05711 23.6978C7.38626 23.9829 6.64935 24.1309 5.90268 24.1304ZM5.90268 24.1304V29M5.90268 29H10.1022M5.90268 29H1.70316M16.4015 16.8261V29H29V16.8261L26.4803 13.9043C25.3899 12.64 24.8005 11.1022 24.8005 9.52174V1H20.601V9.52174C20.601 11.1022 20.0115 12.64 18.9212 13.9043L17.1014 16.0141L16.4015 16.8261Z" stroke="#CDCDCC"/>
</svg>
