<svg width="13" height="14" viewBox="0 0 13 14" fill="none" xmlns="http://www.w3.org/2000/svg">
<g clip-path="url(#clip0_452_13499)">
<path d="M3.83008 7.38163L5.35533 8.90689L9.16847 5.09375" stroke="white" stroke-width="1.5" stroke-linecap="round" stroke-linejoin="round"/>
<path d="M1.08301 7.00016C1.08301 8.43675 1.65369 9.8145 2.66951 10.8303C3.68534 11.8461 5.06309 12.4168 6.49968 12.4168C7.93626 12.4168 9.31402 11.8461 10.3298 10.8303C11.3457 9.8145 11.9163 8.43675 11.9163 7.00016C11.9163 5.56357 11.3457 4.18582 10.3298 3.17C9.31402 2.15418 7.93626 1.5835 6.49968 1.5835C5.06309 1.5835 3.68534 2.15418 2.66951 3.17C1.65369 4.18582 1.08301 5.56357 1.08301 7.00016V7.00016Z" stroke="white" stroke-width="1.5" stroke-linecap="round" stroke-linejoin="round"/>
</g>
<defs>
<clipPath id="clip0_452_13499">
<rect width="13" height="13" fill="white" transform="translate(0 0.5)"/>
</clipPath>
</defs>
</svg>
