<svg width="22" height="30" viewBox="0 0 22 30" fill="none" xmlns="http://www.w3.org/2000/svg">
<path d="M5.4517 29V28.6165L6.89205 27.0398C7.06108 26.8551 7.20028 26.6946 7.30966 26.5582C7.41903 26.4205 7.5 26.2912 7.55256 26.1705C7.60653 26.0483 7.63352 25.9205 7.63352 25.7869C7.63352 25.6335 7.59659 25.5007 7.52273 25.3885C7.45028 25.2763 7.35085 25.1896 7.22443 25.1286C7.09801 25.0675 6.95597 25.0369 6.7983 25.0369C6.63068 25.0369 6.48438 25.0717 6.35938 25.1413C6.2358 25.2095 6.13991 25.3054 6.07173 25.429C6.00497 25.5526 5.97159 25.6974 5.97159 25.8636H5.46875C5.46875 25.608 5.5277 25.3835 5.6456 25.1903C5.76349 24.9972 5.92401 24.8466 6.12713 24.7386C6.33168 24.6307 6.56108 24.5767 6.81534 24.5767C7.07102 24.5767 7.29759 24.6307 7.49503 24.7386C7.69247 24.8466 7.8473 24.9922 7.95952 25.1754C8.07173 25.3587 8.12784 25.5625 8.12784 25.7869C8.12784 25.9474 8.09872 26.1044 8.04048 26.2578C7.98366 26.4098 7.88423 26.5795 7.74219 26.767C7.60156 26.9531 7.40625 27.1804 7.15625 27.4489L6.17614 28.4972V28.5312H8.20455V29H5.4517ZM10.4482 29.0597C10.1982 29.0597 9.97301 29.0099 9.77273 28.9105C9.57244 28.8111 9.41193 28.6747 9.29119 28.5014C9.17045 28.3281 9.1044 28.1307 9.09304 27.9091H9.6044C9.62429 28.1065 9.71378 28.2699 9.87287 28.3991C10.0334 28.527 10.2251 28.5909 10.4482 28.5909C10.6271 28.5909 10.7862 28.549 10.9254 28.4652C11.0661 28.3814 11.1761 28.2663 11.2557 28.12C11.3366 27.9723 11.3771 27.8054 11.3771 27.6193C11.3771 27.429 11.3352 27.2592 11.2514 27.1101C11.169 26.9595 11.0554 26.8409 10.9105 26.7543C10.7656 26.6676 10.6001 26.6236 10.4141 26.6222C10.2805 26.6207 10.1435 26.6413 10.0028 26.6839C9.86222 26.7251 9.74645 26.7784 9.65554 26.8438L9.16122 26.7841L9.42543 24.6364H11.6925V25.1051H9.86861L9.7152 26.392H9.74077C9.83026 26.321 9.94247 26.2621 10.0774 26.2152C10.2124 26.1683 10.353 26.1449 10.4993 26.1449C10.7663 26.1449 11.0043 26.2088 11.2131 26.3366C11.4233 26.4631 11.5881 26.6364 11.7074 26.8565C11.8281 27.0767 11.8885 27.3281 11.8885 27.6108C11.8885 27.8892 11.826 28.1378 11.701 28.3565C11.5774 28.5739 11.407 28.7457 11.1896 28.8722C10.9723 28.9972 10.7251 29.0597 10.4482 29.0597ZM14.9593 28.1818V27.9517C14.9593 27.7926 14.992 27.647 15.0574 27.5149C15.1241 27.3814 15.2207 27.2749 15.3471 27.1953C15.475 27.1143 15.6298 27.0739 15.8116 27.0739C15.9963 27.0739 16.1511 27.1143 16.2761 27.1953C16.4011 27.2749 16.4956 27.3814 16.5595 27.5149C16.6234 27.647 16.6554 27.7926 16.6554 27.9517V28.1818C16.6554 28.3409 16.6227 28.4872 16.5574 28.6207C16.4934 28.7528 16.3983 28.8594 16.2718 28.9403C16.1468 29.0199 15.9934 29.0597 15.8116 29.0597C15.627 29.0597 15.4714 29.0199 15.345 28.9403C15.2186 28.8594 15.1227 28.7528 15.0574 28.6207C14.992 28.4872 14.9593 28.3409 14.9593 28.1818ZM15.394 27.9517V28.1818C15.394 28.3139 15.4252 28.4325 15.4877 28.5376C15.5502 28.6413 15.6582 28.6932 15.8116 28.6932C15.9608 28.6932 16.0659 28.6413 16.127 28.5376C16.1895 28.4325 16.2207 28.3139 16.2207 28.1818V27.9517C16.2207 27.8196 16.1909 27.7017 16.1312 27.598C16.0716 27.4929 15.965 27.4403 15.8116 27.4403C15.6625 27.4403 15.5552 27.4929 15.4899 27.598C15.426 27.7017 15.394 27.8196 15.394 27.9517ZM12.786 25.6847V25.4545C12.786 25.2955 12.8187 25.1499 12.8841 25.0178C12.9508 24.8842 13.0474 24.7777 13.1738 24.6982C13.3017 24.6172 13.4565 24.5767 13.6383 24.5767C13.823 24.5767 13.9778 24.6172 14.1028 24.6982C14.2278 24.7777 14.3223 24.8842 14.3862 25.0178C14.4501 25.1499 14.4821 25.2955 14.4821 25.4545V25.6847C14.4821 25.8437 14.4494 25.9901 14.3841 26.1236C14.3201 26.2557 14.225 26.3622 14.0985 26.4432C13.9735 26.5227 13.8201 26.5625 13.6383 26.5625C13.4537 26.5625 13.2981 26.5227 13.1717 26.4432C13.0453 26.3622 12.9494 26.2557 12.8841 26.1236C12.8187 25.9901 12.786 25.8437 12.786 25.6847ZM13.2207 25.4545V25.6847C13.2207 25.8168 13.252 25.9354 13.3145 26.0405C13.377 26.1442 13.4849 26.196 13.6383 26.196C13.7875 26.196 13.8926 26.1442 13.9537 26.0405C14.0162 25.9354 14.0474 25.8168 14.0474 25.6847V25.4545C14.0474 25.3224 14.0176 25.2045 13.9579 25.1009C13.8983 24.9957 13.7917 24.9432 13.6383 24.9432C13.4892 24.9432 13.3819 24.9957 13.3166 25.1009C13.2527 25.2045 13.2207 25.3224 13.2207 25.4545ZM12.948 29L15.948 24.6364H16.4338L13.4338 29H12.948Z" fill="black"/>
<path fill-rule="evenodd" clip-rule="evenodd" d="M2.88302 1.067C2.86982 0.912934 2.79598 0.770413 2.67773 0.670765C2.55949 0.571117 2.40652 0.522494 2.25244 0.535585L1.08927 0.634168C1.01294 0.640635 0.938618 0.662077 0.870567 0.697268C0.802516 0.732459 0.742063 0.780711 0.692661 0.839267C0.643259 0.897823 0.605876 0.965537 0.582646 1.03854C0.559416 1.11155 0.550794 1.18841 0.557273 1.26475L0.74919 3.52167C0.665269 3.58019 0.598215 3.65975 0.554756 3.75237C0.511297 3.84499 0.492962 3.94741 0.50159 4.04935C0.510218 4.1513 0.545507 4.24918 0.603914 4.33318C0.662322 4.41718 0.741794 4.48434 0.834357 4.52792L1.03852 6.93242C1.04499 7.00876 1.06643 7.08307 1.10162 7.15112C1.13681 7.21918 1.18507 7.27963 1.24362 7.32903C1.30218 7.37843 1.36989 7.41582 1.4429 7.43905C1.5159 7.46228 1.59277 7.4709 1.66911 7.46442L2.83169 7.36525C2.98575 7.35219 3.12833 7.27849 3.22808 7.16036C3.32784 7.04223 3.37661 6.88933 3.36369 6.73525L3.14786 4.20008C3.44536 4.147 3.73702 4.09625 4.02519 4.04842C4.08644 5.01092 4.26436 6.64367 4.59219 8.18133C4.80219 9.16133 5.08919 10.1845 5.48819 10.9895C5.68652 11.3908 5.94436 11.8015 6.28561 12.1258C6.58719 12.4128 6.99552 12.6666 7.49952 12.7331V15.2601L7.30936 15.1918L7.17927 15.1452C6.59302 14.9352 5.99744 14.7217 5.54244 14.6068C5.32194 14.5508 4.98769 14.4778 4.65986 14.507C4.38001 14.5284 4.11301 14.6333 3.89336 14.808C3.74335 14.9304 3.62267 15.0848 3.5402 15.26C3.45773 15.4351 3.41555 15.6265 3.41677 15.8201C3.41677 16.3002 3.58069 17.5351 3.72011 18.5215C3.80606 19.1304 3.89551 19.7389 3.98844 20.3468L4.00711 20.4687L4.01236 20.5007L4.01352 20.5089V20.5118L5.16677 20.3333L4.01411 20.5118C4.05872 20.7945 4.20564 21.0509 4.42694 21.2322C4.64823 21.4136 4.92847 21.5074 5.21437 21.4956C5.50026 21.4839 5.77187 21.3675 5.97756 21.1686C6.18324 20.9697 6.30865 20.7021 6.32994 20.4168L6.54577 17.3968C7.19386 17.629 7.95044 17.8967 8.69769 18.1068C9.44027 18.3156 10.2552 18.4917 11.0001 18.4917C11.745 18.4917 12.5599 18.3156 13.3025 18.1068C14.0434 17.8985 14.7935 17.6331 15.4375 17.4027L15.6703 20.4226C15.6924 20.7077 15.8185 20.9748 16.0246 21.173C16.2307 21.3713 16.5024 21.4869 16.7882 21.498C17.074 21.5091 17.3539 21.4149 17.5747 21.2332C17.7955 21.0515 17.9419 20.795 17.9861 20.5124L17.9867 20.5089L17.9879 20.5007L17.9931 20.4687L18.0118 20.3462L18.0783 19.9069C18.1331 19.5406 18.2066 19.0436 18.2801 18.5215C18.4195 17.5351 18.5834 16.3002 18.5834 15.8207C18.5834 15.4765 18.4493 15.0868 18.1063 14.808C17.8866 14.6333 17.6196 14.5284 17.3398 14.507C17.0119 14.4778 16.6777 14.5507 16.4566 14.6062C16.0016 14.7217 15.4066 14.9352 14.8204 15.1452L14.6903 15.1918L14.5001 15.2601V12.736C15.6026 12.6129 16.2705 11.7193 16.6386 11.0082C17.0656 10.1845 17.3444 9.14325 17.5334 8.158C17.8298 6.61858 17.9464 5.00217 17.9844 4.056C18.269 4.10267 18.5578 4.15225 18.8512 4.20417L18.6354 6.73525C18.6224 6.88942 18.6713 7.0424 18.7712 7.16055C18.871 7.2787 19.0138 7.35233 19.1679 7.36525L20.3299 7.46442C20.4063 7.4709 20.4831 7.46228 20.5561 7.43905C20.6292 7.41582 20.6969 7.37843 20.7554 7.32903C20.814 7.27963 20.8622 7.21918 20.8974 7.15112C20.9326 7.08307 20.9541 7.00876 20.9605 6.93242L21.1647 4.52792C21.2576 4.48466 21.3374 4.41765 21.3961 4.33367C21.4548 4.24969 21.4902 4.15171 21.4989 4.04962C21.5076 3.94754 21.4892 3.84496 21.4456 3.75226C21.402 3.65956 21.3347 3.58002 21.2504 3.52167L21.4424 1.26475C21.4488 1.18841 21.4402 1.11155 21.417 1.03854C21.3938 0.965537 21.3564 0.897823 21.307 0.839267C21.2576 0.780711 21.1971 0.732459 21.1291 0.697268C21.061 0.662077 20.9867 0.640635 20.9104 0.634168L19.7478 0.535001C19.5937 0.522079 19.4408 0.570855 19.3227 0.67061C19.2045 0.770365 19.1308 0.912939 19.1178 1.067L18.9504 3.03692C18.5782 2.97158 18.2136 2.91033 17.8554 2.85317C17.7682 2.69505 17.6455 2.55932 17.497 2.45668C17.3484 2.35404 17.1781 2.28729 16.9993 2.26167C16.8206 2.23605 16.6383 2.25228 16.4669 2.30906C16.2955 2.36585 16.1396 2.46165 16.0115 2.58892C12.4666 2.1415 9.46536 2.14208 5.98227 2.58308C5.85418 2.45777 5.69894 2.36364 5.5286 2.308C5.35825 2.25237 5.17738 2.23672 5.00001 2.26228C4.82265 2.28784 4.65355 2.35391 4.50584 2.45537C4.35813 2.55683 4.23578 2.69095 4.14827 2.84733C3.78894 2.9045 3.42319 2.96633 3.04986 3.03283L2.88302 1.067ZM6.87477 7.69367C6.60336 6.38106 6.42558 5.05082 6.34277 3.713C9.56919 3.32042 12.3774 3.32042 15.6615 3.72058C15.6394 4.49758 15.5402 6.16708 15.2421 7.717C15.0671 8.62758 14.8396 9.40925 14.5672 9.93483C14.3817 10.2924 14.2545 10.3928 14.2125 10.4167H7.87519C7.80752 10.3461 7.70311 10.2032 7.57944 9.9535C7.30994 9.40925 7.07077 8.6095 6.87477 7.69367ZM13.6251 6.625C13.6251 7.32119 13.3485 7.98887 12.8563 8.48116C12.364 8.97344 11.6963 9.25 11.0001 9.25C10.3039 9.25 9.63623 8.97344 9.14395 8.48116C8.65167 7.98887 8.37511 7.32119 8.37511 6.625C8.37511 5.92881 8.65167 5.26113 9.14395 4.76885C9.63623 4.27656 10.3039 4 11.0001 4C11.6963 4 12.364 4.27656 12.8563 4.76885C13.3485 5.26113 13.6251 5.92881 13.6251 6.625Z" fill="black"/>
</svg>
