<svg width="22" height="30" viewBox="0 0 22 30" fill="none" xmlns="http://www.w3.org/2000/svg">
<path d="M6.31583 28.5267C6.06583 28.5267 5.84069 28.477 5.6404 28.3776C5.44012 28.2781 5.27961 28.1418 5.15887 27.9685C5.03813 27.7952 4.97208 27.5977 4.96072 27.3761H5.47208C5.49197 27.5736 5.58145 27.7369 5.74055 27.8662C5.90106 27.994 6.09282 28.058 6.31583 28.058C6.49481 28.058 6.6539 28.016 6.7931 27.9322C6.93373 27.8484 7.04381 27.7334 7.12336 27.5871C7.20432 27.4393 7.24481 27.2724 7.24481 27.0864C7.24481 26.896 7.2029 26.7263 7.1191 26.5771C7.03671 26.4266 6.92307 26.308 6.77819 26.2213C6.6333 26.1347 6.46782 26.0906 6.28174 26.0892C6.14822 26.0878 6.01114 26.1084 5.87052 26.151C5.72989 26.1922 5.61412 26.2455 5.52322 26.3108L5.0289 26.2511L5.2931 24.1034H7.56015V24.5722H5.73628L5.58287 25.8591H5.60844C5.69793 25.7881 5.81015 25.7291 5.94509 25.6822C6.08003 25.6354 6.22066 25.6119 6.36697 25.6119C6.63401 25.6119 6.87194 25.6758 7.08074 25.8037C7.29097 25.9301 7.45574 26.1034 7.57506 26.3236C7.6958 26.5437 7.75617 26.7952 7.75617 27.0778C7.75617 27.3562 7.69367 27.6048 7.56867 27.8236C7.44509 28.0409 7.27464 28.2128 7.05731 28.3392C6.83998 28.4642 6.59282 28.5267 6.31583 28.5267ZM10.0259 28.5267C9.70486 28.5267 9.43142 28.4393 9.20557 28.2646C8.97971 28.0885 8.80713 27.8335 8.68781 27.4997C8.56849 27.1645 8.50883 26.7597 8.50883 26.2852C8.50883 25.8136 8.56849 25.4109 8.68781 25.0771C8.80855 24.7419 8.98184 24.4862 9.2077 24.3101C9.43497 24.1325 9.7077 24.0437 10.0259 24.0437C10.3441 24.0437 10.6161 24.1325 10.8419 24.3101C11.0692 24.4862 11.2425 24.7419 11.3618 25.0771C11.4826 25.4109 11.5429 25.8136 11.5429 26.2852C11.5429 26.7597 11.4833 27.1645 11.3639 27.4997C11.2446 27.8335 11.072 28.0885 10.8462 28.2646C10.6203 28.4393 10.3469 28.5267 10.0259 28.5267ZM10.0259 28.058C10.3441 28.058 10.5912 27.9045 10.7674 27.5977C10.9435 27.2909 11.0316 26.8534 11.0316 26.2852C11.0316 25.9074 10.9911 25.5856 10.9101 25.32C10.8306 25.0544 10.7155 24.852 10.5649 24.7128C10.4158 24.5736 10.2361 24.504 10.0259 24.504C9.71054 24.504 9.46409 24.6595 9.28653 24.9706C9.10898 25.2803 9.0202 25.7185 9.0202 26.2852C9.0202 26.6631 9.05997 26.9841 9.13952 27.2483C9.21906 27.5125 9.33341 27.7135 9.48256 27.8513C9.63312 27.9891 9.81423 28.058 10.0259 28.058ZM14.577 27.6489V27.4187C14.577 27.2597 14.6097 27.1141 14.675 26.982C14.7418 26.8484 14.8384 26.7419 14.9648 26.6624C15.0926 26.5814 15.2475 26.5409 15.4293 26.5409C15.6139 26.5409 15.7688 26.5814 15.8938 26.6624C16.0188 26.7419 16.1132 26.8484 16.1772 26.982C16.2411 27.1141 16.273 27.2597 16.273 27.4187V27.6489C16.273 27.808 16.2404 27.9543 16.175 28.0878C16.1111 28.2199 16.0159 28.3264 15.8895 28.4074C15.7645 28.4869 15.6111 28.5267 15.4293 28.5267C15.2446 28.5267 15.0891 28.4869 14.9627 28.4074C14.8362 28.3264 14.7404 28.2199 14.675 28.0878C14.6097 27.9543 14.577 27.808 14.577 27.6489ZM15.0117 27.4187V27.6489C15.0117 27.781 15.0429 27.8996 15.1054 28.0047C15.1679 28.1084 15.2759 28.1602 15.4293 28.1602C15.5784 28.1602 15.6835 28.1084 15.7446 28.0047C15.8071 27.8996 15.8384 27.781 15.8384 27.6489V27.4187C15.8384 27.2866 15.8085 27.1687 15.7489 27.0651C15.6892 26.9599 15.5827 26.9074 15.4293 26.9074C15.2801 26.9074 15.1729 26.9599 15.1076 27.0651C15.0436 27.1687 15.0117 27.2866 15.0117 27.4187ZM12.4037 25.1517V24.9216C12.4037 24.7625 12.4364 24.6169 12.5017 24.4848C12.5685 24.3513 12.6651 24.2447 12.7915 24.1652C12.9193 24.0842 13.0742 24.0437 13.256 24.0437C13.4407 24.0437 13.5955 24.0842 13.7205 24.1652C13.8455 24.2447 13.9399 24.3513 14.0039 24.4848C14.0678 24.6169 14.0997 24.7625 14.0997 24.9216V25.1517C14.0997 25.3108 14.0671 25.4571 14.0017 25.5906C13.9378 25.7227 13.8426 25.8293 13.7162 25.9102C13.5912 25.9898 13.4378 26.0295 13.256 26.0295C13.0713 26.0295 12.9158 25.9898 12.7894 25.9102C12.663 25.8293 12.5671 25.7227 12.5017 25.5906C12.4364 25.4571 12.4037 25.3108 12.4037 25.1517ZM12.8384 24.9216V25.1517C12.8384 25.2838 12.8696 25.4024 12.9321 25.5075C12.9946 25.6112 13.1026 25.6631 13.256 25.6631C13.4051 25.6631 13.5103 25.6112 13.5713 25.5075C13.6338 25.4024 13.6651 25.2838 13.6651 25.1517V24.9216C13.6651 24.7895 13.6353 24.6716 13.5756 24.5679C13.5159 24.4628 13.4094 24.4102 13.256 24.4102C13.1068 24.4102 12.9996 24.4628 12.9343 24.5679C12.8703 24.6716 12.8384 24.7895 12.8384 24.9216ZM12.5657 28.467L15.5657 24.1034H16.0514L13.0514 28.467H12.5657Z" fill="black"/>
<path fill-rule="evenodd" clip-rule="evenodd" d="M2.38351 0.534042C2.3703 0.379975 2.29646 0.237454 2.17822 0.137806C2.05998 0.0381576 1.90701 -0.0104647 1.75293 0.00262565L0.589762 0.101209C0.513423 0.107676 0.439106 0.129118 0.371055 0.164309C0.303004 0.1995 0.242551 0.247752 0.193149 0.306308C0.143748 0.364864 0.106364 0.432578 0.0831344 0.505584C0.0599044 0.578589 0.0512827 0.655455 0.0577617 0.731792L0.249678 2.98871C0.165758 3.04723 0.0987034 3.12679 0.0552444 3.21941C0.0117853 3.31203 -0.00654995 3.41445 0.0020784 3.51639C0.0107068 3.61834 0.0459951 3.71622 0.104403 3.80022C0.16281 3.88422 0.242283 3.95138 0.334845 3.99496L0.539012 6.39946C0.545479 6.4758 0.56692 6.55011 0.602112 6.61817C0.637303 6.68622 0.685554 6.74667 0.744111 6.79607C0.802667 6.84547 0.870381 6.88286 0.943386 6.90609C1.01639 6.92932 1.09326 6.93794 1.16959 6.93146L2.33218 6.83229C2.48624 6.81923 2.62881 6.74553 2.72857 6.6274C2.82833 6.50927 2.8771 6.35637 2.86418 6.20229L2.64834 3.66713C2.94584 3.61404 3.23751 3.56329 3.52568 3.51546C3.58693 4.47796 3.76485 6.11071 4.09268 7.64838C4.30268 8.62838 4.58968 9.65154 4.98868 10.4565C5.18701 10.8579 5.44485 11.2685 5.7861 11.5929C6.08768 11.8799 6.49601 12.1336 7.00001 12.2001V14.7271L6.80985 14.6589L6.67976 14.6122C6.09351 14.4022 5.49793 14.1887 5.04293 14.0738C4.82243 14.0178 4.48818 13.9449 4.16034 13.974C3.8805 13.9955 3.6135 14.1003 3.39385 14.275C3.24384 14.3974 3.12316 14.5519 3.04069 14.727C2.95821 14.9021 2.91604 15.0935 2.91726 15.2871C2.91726 15.7672 3.08118 17.0021 3.2206 17.9885C3.30655 18.5975 3.396 19.2059 3.48893 19.8138L3.50759 19.9357L3.51284 19.9678L3.51401 19.976V19.9789L4.66726 19.8004L3.5146 19.9789C3.55921 20.2615 3.70613 20.5179 3.92742 20.6993C4.14872 20.8807 4.42896 20.9744 4.71486 20.9627C5.00075 20.9509 5.27236 20.8345 5.47805 20.6356C5.68373 20.4367 5.80914 20.1691 5.83043 19.8838L6.04626 16.8639C6.69434 17.096 7.45093 17.3638 8.19818 17.5738C8.94076 17.7826 9.75568 17.9588 10.5006 17.9588C11.2455 17.9588 12.0604 17.7826 12.803 17.5738C13.5438 17.3655 14.294 17.1001 14.938 16.8697L15.1708 19.8896C15.1929 20.1747 15.319 20.4418 15.5251 20.6401C15.7312 20.8383 16.0029 20.954 16.2887 20.9651C16.5745 20.9762 16.8544 20.8819 17.0752 20.7002C17.296 20.5185 17.4424 20.262 17.4866 19.9795L17.4872 19.976L17.4883 19.9678L17.4936 19.9357L17.5123 19.8132L17.5788 19.374C17.6336 19.0076 17.7071 18.5106 17.7806 17.9885C17.92 17.0021 18.0839 15.7672 18.0839 15.2877C18.0839 14.9435 17.9498 14.5539 17.6068 14.275C17.3871 14.1003 17.1201 13.9954 16.8403 13.974C16.5124 13.9449 16.1782 14.0178 15.9571 14.0732C15.5021 14.1887 14.9071 14.4022 14.3208 14.6122L14.1908 14.6589L14.0006 14.7271V12.203C15.1031 12.08 15.771 11.1863 16.1391 10.4752C16.5661 9.65154 16.8449 8.61029 17.0339 7.62504C17.3303 6.08563 17.4469 4.46921 17.4848 3.52304C17.7695 3.56971 18.0583 3.61929 18.3517 3.67121L18.1358 6.20229C18.1229 6.35646 18.1718 6.50945 18.2717 6.62759C18.3715 6.74574 18.5143 6.81937 18.6684 6.83229L19.8304 6.93146C19.9068 6.93794 19.9836 6.92932 20.0566 6.90609C20.1296 6.88286 20.1974 6.84547 20.2559 6.79607C20.3145 6.74667 20.3627 6.68622 20.3979 6.61817C20.4331 6.55011 20.4545 6.4758 20.461 6.39946L20.6652 3.99496C20.7581 3.9517 20.8379 3.88469 20.8966 3.80071C20.9552 3.71673 20.9907 3.61875 20.9994 3.51666C21.0081 3.41458 20.9897 3.31201 20.9461 3.2193C20.9025 3.1266 20.8351 3.04706 20.7509 2.98871L20.9428 0.731792C20.9493 0.655455 20.9407 0.578589 20.9175 0.505584C20.8942 0.432578 20.8569 0.364864 20.8075 0.306308C20.7581 0.247752 20.6976 0.1995 20.6296 0.164309C20.5615 0.129118 20.4872 0.107676 20.4108 0.101209L19.2483 0.00204236C19.0942 -0.0108799 18.9413 0.0378955 18.8232 0.137651C18.705 0.237406 18.6313 0.37998 18.6183 0.534042L18.4508 2.50396C18.0787 2.43863 17.7141 2.37738 17.3559 2.32021C17.2687 2.16209 17.146 2.02636 16.9975 1.92372C16.8489 1.82108 16.6785 1.75433 16.4998 1.72871C16.3211 1.7031 16.1388 1.71932 15.9674 1.77611C15.796 1.83289 15.6401 1.92869 15.512 2.05596C11.9671 1.60854 8.96585 1.60913 5.48276 2.05013C5.35467 1.92481 5.19943 1.83068 5.02909 1.77505C4.85874 1.71941 4.67787 1.70376 4.5005 1.72932C4.32313 1.75488 4.15404 1.82095 4.00633 1.92241C3.85862 2.02387 3.73626 2.15799 3.64876 2.31438C3.28943 2.37154 2.92368 2.43338 2.55034 2.49988L2.38351 0.534042ZM6.37526 7.16071C6.10385 5.8481 5.92607 4.51786 5.84326 3.18004C9.06968 2.78746 11.8778 2.78746 15.162 3.18763C15.1398 3.96463 15.0407 5.63413 14.7426 7.18404C14.5676 8.09463 14.3401 8.87629 14.0677 9.40187C13.8822 9.75946 13.755 9.85979 13.713 9.88371H7.37568C7.30801 9.81312 7.20359 9.67021 7.07993 9.42054C6.81043 8.87629 6.57126 8.07654 6.37526 7.16071ZM13.1256 6.09204C13.1256 6.78824 12.849 7.45591 12.3567 7.9482C11.8645 8.44048 11.1968 8.71704 10.5006 8.71704C9.8044 8.71704 9.13672 8.44048 8.64444 7.9482C8.15216 7.45591 7.8756 6.78824 7.8756 6.09204C7.8756 5.39585 8.15216 4.72817 8.64444 4.23589C9.13672 3.7436 9.8044 3.46704 10.5006 3.46704C11.1968 3.46704 11.8645 3.7436 12.3567 4.23589C12.849 4.72817 13.1256 5.39585 13.1256 6.09204Z" fill="black"/>
</svg>
