<svg width="22" height="29" viewBox="0 0 22 29" fill="none" xmlns="http://www.w3.org/2000/svg">
<path d="M4.9858 23.6364V28H4.45739V24.1903H4.43182L3.36648 24.8977V24.3608L4.45739 23.6364H4.9858ZM7.66406 28.0597C7.34304 28.0597 7.0696 27.9723 6.84375 27.7976C6.6179 27.6214 6.44531 27.3665 6.32599 27.0327C6.20668 26.6974 6.14702 26.2926 6.14702 25.8182C6.14702 25.3466 6.20668 24.9439 6.32599 24.6101C6.44673 24.2749 6.62003 24.0192 6.84588 23.843C7.07315 23.6655 7.34588 23.5767 7.66406 23.5767C7.98224 23.5767 8.25426 23.6655 8.48011 23.843C8.70739 24.0192 8.88068 24.2749 9 24.6101C9.12074 24.9439 9.18111 25.3466 9.18111 25.8182C9.18111 26.2926 9.12145 26.6974 9.00213 27.0327C8.88281 27.3665 8.71023 27.6214 8.48438 27.7976C8.25852 27.9723 7.98509 28.0597 7.66406 28.0597ZM7.66406 27.5909C7.98224 27.5909 8.2294 27.4375 8.40554 27.1307C8.58168 26.8239 8.66974 26.3864 8.66974 25.8182C8.66974 25.4403 8.62926 25.1186 8.5483 24.853C8.46875 24.5874 8.35369 24.3849 8.20312 24.2457C8.05398 24.1065 7.87429 24.0369 7.66406 24.0369C7.34872 24.0369 7.10227 24.1925 6.92472 24.5036C6.74716 24.8132 6.65838 25.2514 6.65838 25.8182C6.65838 26.196 6.69815 26.517 6.7777 26.7812C6.85724 27.0455 6.97159 27.2464 7.12074 27.3842C7.27131 27.522 7.45241 27.5909 7.66406 27.5909ZM11.4141 28.0597C11.093 28.0597 10.8196 27.9723 10.5938 27.7976C10.3679 27.6214 10.1953 27.3665 10.076 27.0327C9.95668 26.6974 9.89702 26.2926 9.89702 25.8182C9.89702 25.3466 9.95668 24.9439 10.076 24.6101C10.1967 24.2749 10.37 24.0192 10.5959 23.843C10.8232 23.6655 11.0959 23.5767 11.4141 23.5767C11.7322 23.5767 12.0043 23.6655 12.2301 23.843C12.4574 24.0192 12.6307 24.2749 12.75 24.6101C12.8707 24.9439 12.9311 25.3466 12.9311 25.8182C12.9311 26.2926 12.8714 26.6974 12.7521 27.0327C12.6328 27.3665 12.4602 27.6214 12.2344 27.7976C12.0085 27.9723 11.7351 28.0597 11.4141 28.0597ZM11.4141 27.5909C11.7322 27.5909 11.9794 27.4375 12.1555 27.1307C12.3317 26.8239 12.4197 26.3864 12.4197 25.8182C12.4197 25.4403 12.3793 25.1186 12.2983 24.853C12.2188 24.5874 12.1037 24.3849 11.9531 24.2457C11.804 24.1065 11.6243 24.0369 11.4141 24.0369C11.0987 24.0369 10.8523 24.1925 10.6747 24.5036C10.4972 24.8132 10.4084 25.2514 10.4084 25.8182C10.4084 26.196 10.4482 26.517 10.5277 26.7812C10.6072 27.0455 10.7216 27.2464 10.8707 27.3842C11.0213 27.522 11.2024 27.5909 11.4141 27.5909ZM15.9652 27.1818V26.9517C15.9652 26.7926 15.9979 26.647 16.0632 26.5149C16.13 26.3814 16.2266 26.2749 16.353 26.1953C16.4808 26.1143 16.6357 26.0739 16.8175 26.0739C17.0021 26.0739 17.157 26.1143 17.282 26.1953C17.407 26.2749 17.5014 26.3814 17.5653 26.5149C17.6293 26.647 17.6612 26.7926 17.6612 26.9517V27.1818C17.6612 27.3409 17.6286 27.4872 17.5632 27.6207C17.4993 27.7528 17.4041 27.8594 17.2777 27.9403C17.1527 28.0199 16.9993 28.0597 16.8175 28.0597C16.6328 28.0597 16.4773 28.0199 16.3509 27.9403C16.2244 27.8594 16.1286 27.7528 16.0632 27.6207C15.9979 27.4872 15.9652 27.3409 15.9652 27.1818ZM16.3999 26.9517V27.1818C16.3999 27.3139 16.4311 27.4325 16.4936 27.5376C16.5561 27.6413 16.6641 27.6932 16.8175 27.6932C16.9666 27.6932 17.0717 27.6413 17.1328 27.5376C17.1953 27.4325 17.2266 27.3139 17.2266 27.1818V26.9517C17.2266 26.8196 17.1967 26.7017 17.1371 26.598C17.0774 26.4929 16.9709 26.4403 16.8175 26.4403C16.6683 26.4403 16.5611 26.4929 16.4957 26.598C16.4318 26.7017 16.3999 26.8196 16.3999 26.9517ZM13.7919 24.6847V24.4545C13.7919 24.2955 13.8246 24.1499 13.8899 24.0178C13.9567 23.8842 14.0533 23.7777 14.1797 23.6982C14.3075 23.6172 14.4624 23.5767 14.6442 23.5767C14.8288 23.5767 14.9837 23.6172 15.1087 23.6982C15.2337 23.7777 15.3281 23.8842 15.392 24.0178C15.456 24.1499 15.4879 24.2955 15.4879 24.4545V24.6847C15.4879 24.8437 15.4553 24.9901 15.3899 25.1236C15.326 25.2557 15.2308 25.3622 15.1044 25.4432C14.9794 25.5227 14.826 25.5625 14.6442 25.5625C14.4595 25.5625 14.304 25.5227 14.1776 25.4432C14.0511 25.3622 13.9553 25.2557 13.8899 25.1236C13.8246 24.9901 13.7919 24.8437 13.7919 24.6847ZM14.2266 24.4545V24.6847C14.2266 24.8168 14.2578 24.9354 14.3203 25.0405C14.3828 25.1442 14.4908 25.196 14.6442 25.196C14.7933 25.196 14.8984 25.1442 14.9595 25.0405C15.022 24.9354 15.0533 24.8168 15.0533 24.6847V24.4545C15.0533 24.3224 15.0234 24.2045 14.9638 24.1009C14.9041 23.9957 14.7976 23.9432 14.6442 23.9432C14.495 23.9432 14.3878 23.9957 14.3224 24.1009C14.2585 24.2045 14.2266 24.3224 14.2266 24.4545ZM13.9538 28L16.9538 23.6364H17.4396L14.4396 28H13.9538Z" fill="black"/>
<path fill-rule="evenodd" clip-rule="evenodd" d="M2.38351 0.534042C2.3703 0.379975 2.29646 0.237454 2.17822 0.137806C2.05998 0.0381576 1.90701 -0.0104647 1.75293 0.00262565L0.589762 0.101209C0.513423 0.107676 0.439106 0.129118 0.371055 0.164309C0.303004 0.1995 0.242551 0.247752 0.193149 0.306308C0.143748 0.364864 0.106364 0.432578 0.0831344 0.505584C0.0599044 0.578589 0.0512827 0.655455 0.0577617 0.731792L0.249678 2.98871C0.165758 3.04723 0.0987034 3.12679 0.0552444 3.21941C0.0117853 3.31203 -0.00654995 3.41445 0.0020784 3.51639C0.0107068 3.61834 0.0459951 3.71622 0.104403 3.80022C0.16281 3.88422 0.242283 3.95138 0.334845 3.99496L0.539012 6.39946C0.545479 6.4758 0.56692 6.55011 0.602112 6.61817C0.637303 6.68622 0.685554 6.74667 0.744111 6.79607C0.802667 6.84547 0.870381 6.88286 0.943386 6.90609C1.01639 6.92932 1.09326 6.93794 1.16959 6.93146L2.33218 6.83229C2.48624 6.81923 2.62881 6.74553 2.72857 6.6274C2.82833 6.50927 2.8771 6.35637 2.86418 6.20229L2.64834 3.66713C2.94584 3.61404 3.23751 3.56329 3.52568 3.51546C3.58693 4.47796 3.76485 6.11071 4.09268 7.64838C4.30268 8.62838 4.58968 9.65154 4.98868 10.4565C5.18701 10.8579 5.44485 11.2685 5.7861 11.5929C6.08768 11.8799 6.49601 12.1336 7.00001 12.2001V14.7271L6.80985 14.6589L6.67976 14.6122C6.09351 14.4022 5.49793 14.1887 5.04293 14.0738C4.82243 14.0178 4.48818 13.9449 4.16034 13.974C3.8805 13.9955 3.6135 14.1003 3.39385 14.275C3.24384 14.3974 3.12316 14.5519 3.04069 14.727C2.95821 14.9021 2.91604 15.0935 2.91726 15.2871C2.91726 15.7672 3.08118 17.0021 3.2206 17.9885C3.30655 18.5975 3.396 19.2059 3.48893 19.8138L3.50759 19.9357L3.51284 19.9678L3.51401 19.976V19.9789L4.66726 19.8004L3.5146 19.9789C3.55921 20.2615 3.70613 20.5179 3.92742 20.6993C4.14872 20.8807 4.42896 20.9744 4.71486 20.9627C5.00075 20.9509 5.27236 20.8345 5.47805 20.6356C5.68373 20.4367 5.80914 20.1691 5.83043 19.8838L6.04626 16.8639C6.69434 17.096 7.45093 17.3638 8.19818 17.5738C8.94076 17.7826 9.75568 17.9588 10.5006 17.9588C11.2455 17.9588 12.0604 17.7826 12.803 17.5738C13.5438 17.3655 14.294 17.1001 14.938 16.8697L15.1708 19.8896C15.1929 20.1747 15.319 20.4418 15.5251 20.6401C15.7312 20.8383 16.0029 20.954 16.2887 20.9651C16.5745 20.9762 16.8544 20.8819 17.0752 20.7002C17.296 20.5185 17.4424 20.262 17.4866 19.9795L17.4872 19.976L17.4883 19.9678L17.4936 19.9357L17.5123 19.8132L17.5788 19.374C17.6336 19.0076 17.7071 18.5106 17.7806 17.9885C17.92 17.0021 18.0839 15.7672 18.0839 15.2877C18.0839 14.9435 17.9498 14.5539 17.6068 14.275C17.3871 14.1003 17.1201 13.9954 16.8403 13.974C16.5124 13.9449 16.1782 14.0178 15.9571 14.0732C15.5021 14.1887 14.9071 14.4022 14.3208 14.6122L14.1908 14.6589L14.0006 14.7271V12.203C15.1031 12.08 15.771 11.1863 16.1391 10.4752C16.5661 9.65154 16.8449 8.61029 17.0339 7.62504C17.3303 6.08563 17.4469 4.46921 17.4848 3.52304C17.7695 3.56971 18.0583 3.61929 18.3517 3.67121L18.1358 6.20229C18.1229 6.35646 18.1718 6.50945 18.2717 6.62759C18.3715 6.74574 18.5143 6.81937 18.6684 6.83229L19.8304 6.93146C19.9068 6.93794 19.9836 6.92932 20.0566 6.90609C20.1296 6.88286 20.1974 6.84547 20.2559 6.79607C20.3145 6.74667 20.3627 6.68622 20.3979 6.61817C20.4331 6.55011 20.4545 6.4758 20.461 6.39946L20.6652 3.99496C20.7581 3.9517 20.8379 3.88469 20.8966 3.80071C20.9552 3.71673 20.9907 3.61875 20.9994 3.51666C21.0081 3.41458 20.9897 3.31201 20.9461 3.2193C20.9025 3.1266 20.8351 3.04706 20.7509 2.98871L20.9428 0.731792C20.9493 0.655455 20.9407 0.578589 20.9175 0.505584C20.8942 0.432578 20.8569 0.364864 20.8075 0.306308C20.7581 0.247752 20.6976 0.1995 20.6296 0.164309C20.5615 0.129118 20.4872 0.107676 20.4108 0.101209L19.2483 0.00204236C19.0942 -0.0108799 18.9413 0.0378955 18.8232 0.137651C18.705 0.237406 18.6313 0.37998 18.6183 0.534042L18.4508 2.50396C18.0787 2.43863 17.7141 2.37738 17.3559 2.32021C17.2687 2.16209 17.146 2.02636 16.9975 1.92372C16.8489 1.82108 16.6785 1.75433 16.4998 1.72871C16.3211 1.7031 16.1388 1.71932 15.9674 1.77611C15.796 1.83289 15.6401 1.92869 15.512 2.05596C11.9671 1.60854 8.96585 1.60913 5.48276 2.05013C5.35467 1.92481 5.19943 1.83068 5.02909 1.77505C4.85874 1.71941 4.67787 1.70376 4.5005 1.72932C4.32313 1.75488 4.15404 1.82095 4.00633 1.92241C3.85862 2.02387 3.73626 2.15799 3.64876 2.31438C3.28943 2.37154 2.92368 2.43338 2.55034 2.49988L2.38351 0.534042ZM6.37526 7.16071C6.10385 5.8481 5.92607 4.51786 5.84326 3.18004C9.06968 2.78746 11.8778 2.78746 15.162 3.18763C15.1398 3.96463 15.0407 5.63413 14.7426 7.18404C14.5676 8.09463 14.3401 8.87629 14.0677 9.40187C13.8822 9.75946 13.755 9.85979 13.713 9.88371H7.37568C7.30801 9.81312 7.20359 9.67021 7.07993 9.42054C6.81043 8.87629 6.57126 8.07654 6.37526 7.16071ZM13.1256 6.09204C13.1256 6.78824 12.849 7.45591 12.3567 7.9482C11.8645 8.44048 11.1968 8.71704 10.5006 8.71704C9.8044 8.71704 9.13672 8.44048 8.64444 7.9482C8.15216 7.45591 7.8756 6.78824 7.8756 6.09204C7.8756 5.39585 8.15216 4.72817 8.64444 4.23589C9.13672 3.7436 9.8044 3.46704 10.5006 3.46704C11.1968 3.46704 11.8645 3.7436 12.3567 4.23589C12.849 4.72817 13.1256 5.39585 13.1256 6.09204Z" fill="black"/>
</svg>
