<svg width="16" height="15" viewBox="0 0 16 15" fill="none" xmlns="http://www.w3.org/2000/svg">
<path d="M7.99994 12.3916L11.4583 14.4833C12.0916 14.8666 12.8666 14.3 12.6999 13.5833L11.7833 9.64997L14.8416 6.99997C15.3999 6.51663 15.0999 5.59997 14.3666 5.54163L10.3416 5.19997L8.76661 1.4833C8.48327 0.808301 7.51661 0.808301 7.23327 1.4833L5.65827 5.19163L1.63327 5.5333C0.899939 5.59163 0.599938 6.5083 1.15827 6.99163L4.21661 9.64163L3.29994 13.575C3.13327 14.2916 3.90827 14.8583 4.5416 14.475L7.99994 12.3916Z" fill="#D9DB23"/>
<path d="M7.35352 6.48828V8.24609H5.8125V8.91406H7.95703V9.28906H3.21094V8.91406H5.35547V8.24609H3.82617V6.48828H7.35352ZM4.27734 6.85742V7.87695H6.89648V6.85742H4.27734ZM7.37109 9.83398V11.4746H6.9082V10.2031H3.73828V9.83398H7.37109ZM13.166 10.4551V10.8359H8.39648V10.4551H9.72656V9.21289H8.83008V8.83203H9.64453V7.13281H8.81836V6.75195H12.709V7.13281H11.8828V8.83203H12.6973V9.21289H11.8008V10.4551H13.166ZM10.1016 8.83203H11.4316V7.13281H10.1016V8.83203ZM10.1895 10.4551H11.3438V9.21289H10.1895V10.4551Z" fill="black"/>
</svg>
