<svg width="20" height="20" viewBox="0 0 20 20" fill="none" xmlns="http://www.w3.org/2000/svg">
<path d="M10.0003 18.3332C14.6027 18.3332 18.3337 14.6022 18.3337 9.99984C18.3337 5.39746 14.6027 1.6665 10.0003 1.6665C5.39795 1.6665 1.66699 5.39746 1.66699 9.99984C1.66699 14.6022 5.39795 18.3332 10.0003 18.3332Z" stroke="#414140" stroke-width="2" stroke-linecap="round" stroke-linejoin="round"/>
<path d="M10 14.1667V10" stroke="#414140" stroke-width="2" stroke-linecap="round" stroke-linejoin="round"/>
<path d="M10.0001 6.1084C9.90735 6.1084 9.81671 6.1359 9.73961 6.18741C9.66251 6.23893 9.60242 6.31215 9.56694 6.39782C9.53145 6.48348 9.52217 6.57775 9.54026 6.66869C9.55835 6.75963 9.603 6.84317 9.66857 6.90874C9.73413 6.9743 9.81767 7.01896 9.90861 7.03705C9.99956 7.05514 10.0938 7.04585 10.1795 7.01037C10.2652 6.97488 10.3384 6.91479 10.3899 6.83769C10.4414 6.7606 10.4689 6.66995 10.4689 6.57723C10.4691 6.51561 10.4571 6.45457 10.4336 6.39762C10.4101 6.34066 10.3755 6.28892 10.332 6.24535C10.2884 6.20178 10.2366 6.16725 10.1797 6.14375C10.1227 6.12025 10.0617 6.10824 10.0001 6.1084Z" fill="#414140" stroke="#414140" stroke-width="2" stroke-linecap="round" stroke-linejoin="round"/>
</svg>
