<svg width="28" height="28" viewBox="0 0 28 28" fill="none" xmlns="http://www.w3.org/2000/svg">
<g clip-path="url(#clip0_1372_9066)">
<path d="M14.5835 18.6667V27.4167H23.3335M25.0835 25.0834V15.75L22.9835 12.95C22.0747 11.7384 21.5835 10.2646 21.5835 8.75004V0.583374H18.0835V8.75004C18.0835 10.2646 17.5923 11.7384 16.6835 12.95L15.1668 14.9719L15.07 15.0699M15.07 15.0699L0.583496 0.583374M15.07 15.0699L27.4168 27.4167M5.8335 22.75C5.2112 22.7505 4.59704 22.6086 4.03793 22.3354C3.47882 22.0622 2.98956 21.6648 2.60752 21.1735C2.22548 20.6823 1.96077 20.1103 1.83361 19.5011C1.70646 18.8919 1.72021 18.2617 1.87383 17.6587L2.91683 13.4167H8.75016L9.79316 17.6587C9.94678 18.2617 9.96054 18.8919 9.83338 19.5011C9.70622 20.1103 9.44151 20.6823 9.05947 21.1735C8.67743 21.6648 8.18817 22.0622 7.62906 22.3354C7.06996 22.6086 6.4558 22.7505 5.8335 22.75ZM5.8335 22.75V27.4167M5.8335 27.4167H9.3335M5.8335 27.4167H2.3335" stroke="black" stroke-width="2"/>
</g>
<defs>
<clipPath id="clip0_1372_9066">
<rect width="28" height="28" fill="white"/>
</clipPath>
</defs>
</svg>
