<svg width="43" height="36" viewBox="0 0 43 36" fill="none" xmlns="http://www.w3.org/2000/svg">
<path d="M32.3656 25.3125H34.9375V16.875H32.25L32.3656 25.3125ZM36.9531 16.875H39.6406V25.3125H36.9531V16.875ZM30.5242 8.01949C29.7661 8.76408 29.318 9.69499 29.2475 10.6716C29.1771 11.6482 29.4882 12.6175 30.1338 13.4331L30.635 14.0625H33.865L32.3701 12.1852C32.0479 11.7782 31.8927 11.2946 31.9278 10.8072C31.963 10.3199 32.1866 9.85541 32.5649 9.48389C33.347 8.72239 33.8009 7.76305 33.8539 6.75975C33.9069 5.75645 33.5559 4.76732 32.8571 3.951L32.3656 3.375H29.2937L29.1409 3.46641L30.6701 5.25867C31.0187 5.66601 31.1939 6.15957 31.1674 6.6602C31.141 7.16083 30.9144 7.63952 30.5242 8.01949ZM36.5711 8.01949C35.813 8.76408 35.3649 9.69499 35.2944 10.6716C35.224 11.6482 35.535 12.6175 36.1806 13.4331L36.6819 14.0625H39.9119L38.417 12.1852C38.0948 11.7782 37.9396 11.2946 37.9747 10.8072C38.0099 10.3199 38.2335 9.85541 38.6118 9.48389C39.3939 8.72239 39.8478 7.76305 39.9008 6.75975C39.9538 5.75645 39.6027 4.76732 38.904 3.951L38.4125 3.375H35.3406L35.1878 3.46641L36.717 5.25867C37.0656 5.66601 37.2407 6.15957 37.2143 6.6602C37.1878 7.16083 36.9613 7.63952 36.5711 8.01949ZM28.3341 16.875H18.2559H1.34375V25.3125H28.3341V16.875ZM4.03125 23.0625V19.125H25.6466V23.0625H4.03125Z" fill="#CDCDCC"/>
</svg>
