<svg width="20" height="21" viewBox="0 0 20 21" fill="none" xmlns="http://www.w3.org/2000/svg">
<circle cx="10.44" cy="9.94" r="8.44" fill="white"/>
<path d="M1.55859 10.5001C1.55859 12.739 2.44797 14.8861 4.03107 16.4692C5.61417 18.0523 7.76131 18.9417 10.0001 18.9417C12.239 18.9417 14.3861 18.0523 15.9692 16.4692C17.5523 14.8861 18.4417 12.739 18.4417 10.5001C18.4417 8.26131 17.5523 6.11417 15.9692 4.53107C14.3861 2.94797 12.239 2.05859 10.0001 2.05859C7.76131 2.05859 5.61417 2.94797 4.03107 4.53107C2.44797 6.11417 1.55859 8.26131 1.55859 10.5001V10.5001Z" stroke="#6F02DB" stroke-width="2" stroke-linecap="round" stroke-linejoin="round"/>
<path d="M9.98682 6.42188V14.6643" stroke="#6F02DB" stroke-width="2" stroke-linecap="round" stroke-linejoin="round"/>
<path d="M5.61035 10.543H14.3636" stroke="#6F02DB" stroke-width="2" stroke-linecap="round" stroke-linejoin="round"/>
</svg>
