<svg width="20" height="20" viewBox="0 0 20 20" fill="none" xmlns="http://www.w3.org/2000/svg">
<path d="M2.70801 18.3333V17.2917C2.70801 16.3341 2.89661 15.3859 3.26305 14.5013C3.62949 13.6166 4.16659 12.8128 4.84369 12.1357C5.52078 11.4586 6.32461 10.9215 7.20927 10.555C8.09394 10.1886 9.04212 10 9.99967 10C10.9572 10 11.9054 10.1886 12.7901 10.555C13.6747 10.9215 14.4786 11.4586 15.1557 12.1357C15.8328 12.8128 16.3699 13.6166 16.7363 14.5013C17.1027 15.3859 17.2913 16.3341 17.2913 17.2917V18.3333" stroke="#414140" stroke-width="2" stroke-linecap="round" stroke-linejoin="round"/>
<path d="M9.99967 9.99984C11.1047 9.99984 12.1646 9.56085 12.946 8.77945C13.7274 7.99805 14.1663 6.93824 14.1663 5.83317C14.1663 4.7281 13.7274 3.66829 12.946 2.88689C12.1646 2.10549 11.1047 1.6665 9.99967 1.6665C8.89461 1.6665 7.8348 2.10549 7.0534 2.88689C6.27199 3.66829 5.83301 4.7281 5.83301 5.83317C5.83301 6.93824 6.27199 7.99805 7.0534 8.77945C7.8348 9.56085 8.89461 9.99984 9.99967 9.99984V9.99984Z" stroke="#414140" stroke-width="2" stroke-linecap="round" stroke-linejoin="round"/>
</svg>
