<svg width="19" height="29" viewBox="0 0 19 29" fill="none" xmlns="http://www.w3.org/2000/svg">
<path d="M14.5033 6.33337H4.48875L4.14042 3.16671H14.8596M2.375 1.58337L3.95833 16.0155C4.06125 16.8071 4.72625 17.4167 5.54167 17.4167H13.4583C14.25 17.4167 14.9388 16.8071 15.0417 16.0155L16.625 1.58337H2.375Z" fill="black"/>
<path d="M4.4517 28V27.6165L5.89205 26.0398C6.06108 25.8551 6.20028 25.6946 6.30966 25.5582C6.41903 25.4205 6.5 25.2912 6.55256 25.1705C6.60653 25.0483 6.63352 24.9205 6.63352 24.7869C6.63352 24.6335 6.59659 24.5007 6.52273 24.3885C6.45028 24.2763 6.35085 24.1896 6.22443 24.1286C6.09801 24.0675 5.95597 24.0369 5.7983 24.0369C5.63068 24.0369 5.48438 24.0717 5.35938 24.1413C5.2358 24.2095 5.13991 24.3054 5.07173 24.429C5.00497 24.5526 4.97159 24.6974 4.97159 24.8636H4.46875C4.46875 24.608 4.5277 24.3835 4.6456 24.1903C4.76349 23.9972 4.92401 23.8466 5.12713 23.7386C5.33168 23.6307 5.56108 23.5767 5.81534 23.5767C6.07102 23.5767 6.29759 23.6307 6.49503 23.7386C6.69247 23.8466 6.8473 23.9922 6.95952 24.1754C7.07173 24.3587 7.12784 24.5625 7.12784 24.7869C7.12784 24.9474 7.09872 25.1044 7.04048 25.2578C6.98366 25.4098 6.88423 25.5795 6.74219 25.767C6.60156 25.9531 6.40625 26.1804 6.15625 26.4489L5.17614 27.4972V27.5312H7.20455V28H4.4517ZM9.44815 28.0597C9.19815 28.0597 8.97301 28.0099 8.77273 27.9105C8.57244 27.8111 8.41193 27.6747 8.29119 27.5014C8.17045 27.3281 8.1044 27.1307 8.09304 26.9091H8.6044C8.62429 27.1065 8.71378 27.2699 8.87287 27.3991C9.03338 27.527 9.22514 27.5909 9.44815 27.5909C9.62713 27.5909 9.78622 27.549 9.92543 27.4652C10.0661 27.3814 10.1761 27.2663 10.2557 27.12C10.3366 26.9723 10.3771 26.8054 10.3771 26.6193C10.3771 26.429 10.3352 26.2592 10.2514 26.1101C10.169 25.9595 10.0554 25.8409 9.91051 25.7543C9.76563 25.6676 9.60014 25.6236 9.41406 25.6222C9.28054 25.6207 9.14347 25.6413 9.00284 25.6839C8.86222 25.7251 8.74645 25.7784 8.65554 25.8438L8.16122 25.7841L8.42543 23.6364H10.6925V24.1051H8.86861L8.7152 25.392H8.74077C8.83026 25.321 8.94247 25.2621 9.07741 25.2152C9.21236 25.1683 9.35298 25.1449 9.49929 25.1449C9.76634 25.1449 10.0043 25.2088 10.2131 25.3366C10.4233 25.4631 10.5881 25.6364 10.7074 25.8565C10.8281 26.0767 10.8885 26.3281 10.8885 26.6108C10.8885 26.8892 10.826 27.1378 10.701 27.3565C10.5774 27.5739 10.407 27.7457 10.1896 27.8722C9.9723 27.9972 9.72514 28.0597 9.44815 28.0597ZM13.9593 27.1818V26.9517C13.9593 26.7926 13.992 26.647 14.0574 26.5149C14.1241 26.3814 14.2207 26.2749 14.3471 26.1953C14.475 26.1143 14.6298 26.0739 14.8116 26.0739C14.9963 26.0739 15.1511 26.1143 15.2761 26.1953C15.4011 26.2749 15.4956 26.3814 15.5595 26.5149C15.6234 26.647 15.6554 26.7926 15.6554 26.9517V27.1818C15.6554 27.3409 15.6227 27.4872 15.5574 27.6207C15.4934 27.7528 15.3983 27.8594 15.2718 27.9403C15.1468 28.0199 14.9934 28.0597 14.8116 28.0597C14.627 28.0597 14.4714 28.0199 14.345 27.9403C14.2186 27.8594 14.1227 27.7528 14.0574 27.6207C13.992 27.4872 13.9593 27.3409 13.9593 27.1818ZM14.394 26.9517V27.1818C14.394 27.3139 14.4252 27.4325 14.4877 27.5376C14.5502 27.6413 14.6582 27.6932 14.8116 27.6932C14.9608 27.6932 15.0659 27.6413 15.127 27.5376C15.1895 27.4325 15.2207 27.3139 15.2207 27.1818V26.9517C15.2207 26.8196 15.1909 26.7017 15.1312 26.598C15.0716 26.4929 14.965 26.4403 14.8116 26.4403C14.6625 26.4403 14.5552 26.4929 14.4899 26.598C14.426 26.7017 14.394 26.8196 14.394 26.9517ZM11.786 24.6847V24.4545C11.786 24.2955 11.8187 24.1499 11.8841 24.0178C11.9508 23.8842 12.0474 23.7777 12.1738 23.6982C12.3017 23.6172 12.4565 23.5767 12.6383 23.5767C12.823 23.5767 12.9778 23.6172 13.1028 23.6982C13.2278 23.7777 13.3223 23.8842 13.3862 24.0178C13.4501 24.1499 13.4821 24.2955 13.4821 24.4545V24.6847C13.4821 24.8437 13.4494 24.9901 13.3841 25.1236C13.3201 25.2557 13.225 25.3622 13.0985 25.4432C12.9735 25.5227 12.8201 25.5625 12.6383 25.5625C12.4537 25.5625 12.2981 25.5227 12.1717 25.4432C12.0453 25.3622 11.9494 25.2557 11.8841 25.1236C11.8187 24.9901 11.786 24.8437 11.786 24.6847ZM12.2207 24.4545V24.6847C12.2207 24.8168 12.252 24.9354 12.3145 25.0405C12.377 25.1442 12.4849 25.196 12.6383 25.196C12.7875 25.196 12.8926 25.1442 12.9537 25.0405C13.0162 24.9354 13.0474 24.8168 13.0474 24.6847V24.4545C13.0474 24.3224 13.0176 24.2045 12.9579 24.1009C12.8983 23.9957 12.7917 23.9432 12.6383 23.9432C12.4892 23.9432 12.3819 23.9957 12.3166 24.1009C12.2527 24.2045 12.2207 24.3224 12.2207 24.4545ZM11.948 28L14.948 23.6364H15.4338L12.4338 28H11.948Z" fill="black"/>
</svg>
