<svg width="19" height="29" viewBox="0 0 19 29" fill="none" xmlns="http://www.w3.org/2000/svg">
<path d="M14.5033 6.33337H4.48875L4.14042 3.16671H14.8596M2.375 1.58337L3.95833 16.0155C4.06125 16.8071 4.72625 17.4167 5.54167 17.4167H13.4583C14.25 17.4167 14.9388 16.8071 15.0417 16.0155L16.625 1.58337H2.375Z" fill="black"/>
<path d="M3.58807 28L5.53977 24.1392V24.1051H3.28977V23.6364H6.08523V24.1307L4.14205 28H3.58807ZM8.18448 28.0597C7.93448 28.0597 7.70934 28.0099 7.50906 27.9105C7.30877 27.8111 7.14826 27.6747 7.02752 27.5014C6.90678 27.3281 6.84073 27.1307 6.82937 26.9091H7.34073C7.36062 27.1065 7.45011 27.2699 7.6092 27.3991C7.76971 27.527 7.96147 27.5909 8.18448 27.5909C8.36346 27.5909 8.52255 27.549 8.66175 27.4652C8.80238 27.3814 8.91246 27.2663 8.99201 27.12C9.07298 26.9723 9.11346 26.8054 9.11346 26.6193C9.11346 26.429 9.07156 26.2592 8.98775 26.1101C8.90536 25.9595 8.79173 25.8409 8.64684 25.7543C8.50195 25.6676 8.33647 25.6236 8.15039 25.6222C8.01687 25.6207 7.87979 25.6413 7.73917 25.6839C7.59854 25.7251 7.48278 25.7784 7.39187 25.8438L6.89755 25.7841L7.16175 23.6364H9.4288V24.1051H7.60494L7.45153 25.392H7.4771C7.56658 25.321 7.6788 25.2621 7.81374 25.2152C7.94869 25.1683 8.08931 25.1449 8.23562 25.1449C8.50266 25.1449 8.74059 25.2088 8.9494 25.3366C9.15962 25.4631 9.3244 25.6364 9.44371 25.8565C9.56445 26.0767 9.62482 26.3281 9.62482 26.6108C9.62482 26.8892 9.56232 27.1378 9.43732 27.3565C9.31374 27.5739 9.14329 27.7457 8.92596 27.8722C8.70863 27.9972 8.46147 28.0597 8.18448 28.0597ZM12.6957 27.1818V26.9517C12.6957 26.7926 12.7283 26.647 12.7937 26.5149C12.8604 26.3814 12.957 26.2749 13.0835 26.1953C13.2113 26.1143 13.3661 26.0739 13.5479 26.0739C13.7326 26.0739 13.8874 26.1143 14.0124 26.1953C14.1374 26.2749 14.2319 26.3814 14.2958 26.5149C14.3597 26.647 14.3917 26.7926 14.3917 26.9517V27.1818C14.3917 27.3409 14.359 27.4872 14.2937 27.6207C14.2298 27.7528 14.1346 27.8594 14.0082 27.9403C13.8832 28.0199 13.7298 28.0597 13.5479 28.0597C13.3633 28.0597 13.2077 28.0199 13.0813 27.9403C12.9549 27.8594 12.859 27.7528 12.7937 27.6207C12.7283 27.4872 12.6957 27.3409 12.6957 27.1818ZM13.1303 26.9517V27.1818C13.1303 27.3139 13.1616 27.4325 13.2241 27.5376C13.2866 27.6413 13.3945 27.6932 13.5479 27.6932C13.6971 27.6932 13.8022 27.6413 13.8633 27.5376C13.9258 27.4325 13.957 27.3139 13.957 27.1818V26.9517C13.957 26.8196 13.9272 26.7017 13.8675 26.598C13.8079 26.4929 13.7013 26.4403 13.5479 26.4403C13.3988 26.4403 13.2915 26.4929 13.2262 26.598C13.1623 26.7017 13.1303 26.8196 13.1303 26.9517ZM10.5224 24.6847V24.4545C10.5224 24.2955 10.555 24.1499 10.6204 24.0178C10.6871 23.8842 10.7837 23.7777 10.9102 23.6982C11.038 23.6172 11.1928 23.5767 11.3746 23.5767C11.5593 23.5767 11.7141 23.6172 11.8391 23.6982C11.9641 23.7777 12.0586 23.8842 12.1225 24.0178C12.1864 24.1499 12.2184 24.2955 12.2184 24.4545V24.6847C12.2184 24.8437 12.1857 24.9901 12.1204 25.1236C12.0565 25.2557 11.9613 25.3622 11.8349 25.4432C11.7099 25.5227 11.5565 25.5625 11.3746 25.5625C11.19 25.5625 11.0344 25.5227 10.908 25.4432C10.7816 25.3622 10.6857 25.2557 10.6204 25.1236C10.555 24.9901 10.5224 24.8437 10.5224 24.6847ZM10.957 24.4545V24.6847C10.957 24.8168 10.9883 24.9354 11.0508 25.0405C11.1133 25.1442 11.2212 25.196 11.3746 25.196C11.5238 25.196 11.6289 25.1442 11.69 25.0405C11.7525 24.9354 11.7837 24.8168 11.7837 24.6847V24.4545C11.7837 24.3224 11.7539 24.2045 11.6942 24.1009C11.6346 23.9957 11.5281 23.9432 11.3746 23.9432C11.2255 23.9432 11.1183 23.9957 11.0529 24.1009C10.989 24.2045 10.957 24.3224 10.957 24.4545ZM10.6843 28L13.6843 23.6364H14.1701L11.1701 28H10.6843Z" fill="black"/>
</svg>
