<svg width="19" height="29" viewBox="0 0 19 29" fill="none" xmlns="http://www.w3.org/2000/svg">
<path d="M14.5033 6.33337H4.48875L4.14042 3.16671H14.8596M2.375 1.58337L3.95833 16.0155C4.06125 16.8071 4.72625 17.4167 5.54167 17.4167H13.4583C14.25 17.4167 14.9388 16.8071 15.0417 16.0155L16.625 1.58337H2.375Z" fill="black"/>
<path d="M2.9858 23.6364V28H2.45739V24.1903H2.43182L1.36648 24.8977V24.3608L2.45739 23.6364H2.9858ZM5.66406 28.0597C5.34304 28.0597 5.0696 27.9723 4.84375 27.7976C4.6179 27.6214 4.44531 27.3665 4.32599 27.0327C4.20668 26.6974 4.14702 26.2926 4.14702 25.8182C4.14702 25.3466 4.20668 24.9439 4.32599 24.6101C4.44673 24.2749 4.62003 24.0192 4.84588 23.843C5.07315 23.6655 5.34588 23.5767 5.66406 23.5767C5.98224 23.5767 6.25426 23.6655 6.48011 23.843C6.70739 24.0192 6.88068 24.2749 7 24.6101C7.12074 24.9439 7.18111 25.3466 7.18111 25.8182C7.18111 26.2926 7.12145 26.6974 7.00213 27.0327C6.88281 27.3665 6.71023 27.6214 6.48438 27.7976C6.25852 27.9723 5.98509 28.0597 5.66406 28.0597ZM5.66406 27.5909C5.98224 27.5909 6.2294 27.4375 6.40554 27.1307C6.58168 26.8239 6.66974 26.3864 6.66974 25.8182C6.66974 25.4403 6.62926 25.1186 6.5483 24.853C6.46875 24.5874 6.35369 24.3849 6.20312 24.2457C6.05398 24.1065 5.87429 24.0369 5.66406 24.0369C5.34872 24.0369 5.10227 24.1925 4.92472 24.5036C4.74716 24.8132 4.65838 25.2514 4.65838 25.8182C4.65838 26.196 4.69815 26.517 4.7777 26.7812C4.85724 27.0455 4.97159 27.2464 5.12074 27.3842C5.27131 27.522 5.45241 27.5909 5.66406 27.5909ZM9.41406 28.0597C9.09304 28.0597 8.8196 27.9723 8.59375 27.7976C8.3679 27.6214 8.19531 27.3665 8.07599 27.0327C7.95668 26.6974 7.89702 26.2926 7.89702 25.8182C7.89702 25.3466 7.95668 24.9439 8.07599 24.6101C8.19673 24.2749 8.37003 24.0192 8.59588 23.843C8.82315 23.6655 9.09588 23.5767 9.41406 23.5767C9.73224 23.5767 10.0043 23.6655 10.2301 23.843C10.4574 24.0192 10.6307 24.2749 10.75 24.6101C10.8707 24.9439 10.9311 25.3466 10.9311 25.8182C10.9311 26.2926 10.8714 26.6974 10.7521 27.0327C10.6328 27.3665 10.4602 27.6214 10.2344 27.7976C10.0085 27.9723 9.73509 28.0597 9.41406 28.0597ZM9.41406 27.5909C9.73224 27.5909 9.9794 27.4375 10.1555 27.1307C10.3317 26.8239 10.4197 26.3864 10.4197 25.8182C10.4197 25.4403 10.3793 25.1186 10.2983 24.853C10.2188 24.5874 10.1037 24.3849 9.95312 24.2457C9.80398 24.1065 9.62429 24.0369 9.41406 24.0369C9.09872 24.0369 8.85227 24.1925 8.67472 24.5036C8.49716 24.8132 8.40838 25.2514 8.40838 25.8182C8.40838 26.196 8.44815 26.517 8.5277 26.7812C8.60724 27.0455 8.72159 27.2464 8.87074 27.3842C9.02131 27.522 9.20241 27.5909 9.41406 27.5909ZM13.9652 27.1818V26.9517C13.9652 26.7926 13.9979 26.647 14.0632 26.5149C14.13 26.3814 14.2266 26.2749 14.353 26.1953C14.4808 26.1143 14.6357 26.0739 14.8175 26.0739C15.0021 26.0739 15.157 26.1143 15.282 26.1953C15.407 26.2749 15.5014 26.3814 15.5653 26.5149C15.6293 26.647 15.6612 26.7926 15.6612 26.9517V27.1818C15.6612 27.3409 15.6286 27.4872 15.5632 27.6207C15.4993 27.7528 15.4041 27.8594 15.2777 27.9403C15.1527 28.0199 14.9993 28.0597 14.8175 28.0597C14.6328 28.0597 14.4773 28.0199 14.3509 27.9403C14.2244 27.8594 14.1286 27.7528 14.0632 27.6207C13.9979 27.4872 13.9652 27.3409 13.9652 27.1818ZM14.3999 26.9517V27.1818C14.3999 27.3139 14.4311 27.4325 14.4936 27.5376C14.5561 27.6413 14.6641 27.6932 14.8175 27.6932C14.9666 27.6932 15.0717 27.6413 15.1328 27.5376C15.1953 27.4325 15.2266 27.3139 15.2266 27.1818V26.9517C15.2266 26.8196 15.1967 26.7017 15.1371 26.598C15.0774 26.4929 14.9709 26.4403 14.8175 26.4403C14.6683 26.4403 14.5611 26.4929 14.4957 26.598C14.4318 26.7017 14.3999 26.8196 14.3999 26.9517ZM11.7919 24.6847V24.4545C11.7919 24.2955 11.8246 24.1499 11.8899 24.0178C11.9567 23.8842 12.0533 23.7777 12.1797 23.6982C12.3075 23.6172 12.4624 23.5767 12.6442 23.5767C12.8288 23.5767 12.9837 23.6172 13.1087 23.6982C13.2337 23.7777 13.3281 23.8842 13.392 24.0178C13.456 24.1499 13.4879 24.2955 13.4879 24.4545V24.6847C13.4879 24.8437 13.4553 24.9901 13.3899 25.1236C13.326 25.2557 13.2308 25.3622 13.1044 25.4432C12.9794 25.5227 12.826 25.5625 12.6442 25.5625C12.4595 25.5625 12.304 25.5227 12.1776 25.4432C12.0511 25.3622 11.9553 25.2557 11.8899 25.1236C11.8246 24.9901 11.7919 24.8437 11.7919 24.6847ZM12.2266 24.4545V24.6847C12.2266 24.8168 12.2578 24.9354 12.3203 25.0405C12.3828 25.1442 12.4908 25.196 12.6442 25.196C12.7933 25.196 12.8984 25.1442 12.9595 25.0405C13.022 24.9354 13.0533 24.8168 13.0533 24.6847V24.4545C13.0533 24.3224 13.0234 24.2045 12.9638 24.1009C12.9041 23.9957 12.7976 23.9432 12.6442 23.9432C12.495 23.9432 12.3878 23.9957 12.3224 24.1009C12.2585 24.2045 12.2266 24.3224 12.2266 24.4545ZM11.9538 28L14.9538 23.6364H15.4396L12.4396 28H11.9538Z" fill="black"/>
</svg>
