<svg width="19" height="29" viewBox="0 0 19 29" fill="none" xmlns="http://www.w3.org/2000/svg">
<path d="M14.5033 6.33337H4.48875L4.14042 3.16671H14.8596M2.375 1.58337L3.95833 16.0155C4.06125 16.8071 4.72625 17.4167 5.54167 17.4167H13.4583C14.25 17.4167 14.9388 16.8071 15.0417 16.0155L16.625 1.58337H2.375Z" fill="black"/>
<path d="M4.81534 28.0597C4.56534 28.0597 4.3402 28.0099 4.13991 27.9105C3.93963 27.8111 3.77912 27.6747 3.65838 27.5014C3.53764 27.3281 3.47159 27.1307 3.46023 26.9091H3.97159C3.99148 27.1065 4.08097 27.2699 4.24006 27.3991C4.40057 27.527 4.59233 27.5909 4.81534 27.5909C4.99432 27.5909 5.15341 27.549 5.29261 27.4652C5.43324 27.3814 5.54332 27.2663 5.62287 27.12C5.70384 26.9723 5.74432 26.8054 5.74432 26.6193C5.74432 26.429 5.70241 26.2592 5.61861 26.1101C5.53622 25.9595 5.42259 25.8409 5.2777 25.7543C5.13281 25.6676 4.96733 25.6236 4.78125 25.6222C4.64773 25.6207 4.51065 25.6413 4.37003 25.6839C4.2294 25.7251 4.11364 25.7784 4.02273 25.8438L3.52841 25.7841L3.79261 23.6364H6.05966V24.1051H4.2358L4.08239 25.392H4.10795C4.19744 25.321 4.30966 25.2621 4.4446 25.2152C4.57955 25.1683 4.72017 25.1449 4.86648 25.1449C5.13352 25.1449 5.37145 25.2088 5.58026 25.3366C5.79048 25.4631 5.95526 25.6364 6.07457 25.8565C6.19531 26.0767 6.25568 26.3281 6.25568 26.6108C6.25568 26.8892 6.19318 27.1378 6.06818 27.3565C5.9446 27.5739 5.77415 27.7457 5.55682 27.8722C5.33949 27.9972 5.09233 28.0597 4.81534 28.0597ZM8.52539 28.0597C8.20437 28.0597 7.93093 27.9723 7.70508 27.7976C7.47923 27.6214 7.30664 27.3665 7.18732 27.0327C7.068 26.6974 7.00835 26.2926 7.00835 25.8182C7.00835 25.3466 7.068 24.9439 7.18732 24.6101C7.30806 24.2749 7.48136 24.0192 7.70721 23.843C7.93448 23.6655 8.20721 23.5767 8.52539 23.5767C8.84357 23.5767 9.11559 23.6655 9.34144 23.843C9.56871 24.0192 9.74201 24.2749 9.86133 24.6101C9.98207 24.9439 10.0424 25.3466 10.0424 25.8182C10.0424 26.2926 9.98278 26.6974 9.86346 27.0327C9.74414 27.3665 9.57156 27.6214 9.3457 27.7976C9.11985 27.9723 8.84641 28.0597 8.52539 28.0597ZM8.52539 27.5909C8.84357 27.5909 9.09073 27.4375 9.26687 27.1307C9.443 26.8239 9.53107 26.3864 9.53107 25.8182C9.53107 25.4403 9.49059 25.1186 9.40962 24.853C9.33008 24.5874 9.21502 24.3849 9.06445 24.2457C8.91531 24.1065 8.73562 24.0369 8.52539 24.0369C8.21005 24.0369 7.9636 24.1925 7.78604 24.5036C7.60849 24.8132 7.51971 25.2514 7.51971 25.8182C7.51971 26.196 7.55948 26.517 7.63903 26.7812C7.71857 27.0455 7.83292 27.2464 7.98207 27.3842C8.13263 27.522 8.31374 27.5909 8.52539 27.5909ZM13.0765 27.1818V26.9517C13.0765 26.7926 13.1092 26.647 13.1745 26.5149C13.2413 26.3814 13.3379 26.2749 13.4643 26.1953C13.5922 26.1143 13.747 26.0739 13.9288 26.0739C14.1135 26.0739 14.2683 26.1143 14.3933 26.1953C14.5183 26.2749 14.6127 26.3814 14.6767 26.5149C14.7406 26.647 14.7725 26.7926 14.7725 26.9517V27.1818C14.7725 27.3409 14.7399 27.4872 14.6745 27.6207C14.6106 27.7528 14.5154 27.8594 14.389 27.9403C14.264 28.0199 14.1106 28.0597 13.9288 28.0597C13.7441 28.0597 13.5886 28.0199 13.4622 27.9403C13.3358 27.8594 13.2399 27.7528 13.1745 27.6207C13.1092 27.4872 13.0765 27.3409 13.0765 27.1818ZM13.5112 26.9517V27.1818C13.5112 27.3139 13.5424 27.4325 13.6049 27.5376C13.6674 27.6413 13.7754 27.6932 13.9288 27.6932C14.0779 27.6932 14.1831 27.6413 14.2441 27.5376C14.3066 27.4325 14.3379 27.3139 14.3379 27.1818V26.9517C14.3379 26.8196 14.3081 26.7017 14.2484 26.598C14.1887 26.4929 14.0822 26.4403 13.9288 26.4403C13.7797 26.4403 13.6724 26.4929 13.6071 26.598C13.5431 26.7017 13.5112 26.8196 13.5112 26.9517ZM10.9032 24.6847V24.4545C10.9032 24.2955 10.9359 24.1499 11.0012 24.0178C11.068 23.8842 11.1646 23.7777 11.291 23.6982C11.4189 23.6172 11.5737 23.5767 11.7555 23.5767C11.9402 23.5767 12.095 23.6172 12.22 23.6982C12.345 23.7777 12.4395 23.8842 12.5034 24.0178C12.5673 24.1499 12.5993 24.2955 12.5993 24.4545V24.6847C12.5993 24.8437 12.5666 24.9901 12.5012 25.1236C12.4373 25.2557 12.3422 25.3622 12.2157 25.4432C12.0907 25.5227 11.9373 25.5625 11.7555 25.5625C11.5708 25.5625 11.4153 25.5227 11.2889 25.4432C11.1625 25.3622 11.0666 25.2557 11.0012 25.1236C10.9359 24.9901 10.9032 24.8437 10.9032 24.6847ZM11.3379 24.4545V24.6847C11.3379 24.8168 11.3691 24.9354 11.4316 25.0405C11.4941 25.1442 11.6021 25.196 11.7555 25.196C11.9047 25.196 12.0098 25.1442 12.0708 25.0405C12.1333 24.9354 12.1646 24.8168 12.1646 24.6847V24.4545C12.1646 24.3224 12.1348 24.2045 12.0751 24.1009C12.0154 23.9957 11.9089 23.9432 11.7555 23.9432C11.6064 23.9432 11.4991 23.9957 11.4338 24.1009C11.3699 24.2045 11.3379 24.3224 11.3379 24.4545ZM11.0652 28L14.0652 23.6364H14.551L11.551 28H11.0652Z" fill="black"/>
</svg>
